<?xml version="1.0" encoding="iso-8859-1"?>
<!-- Generator: Adobe Illustrator 19.0.0, SVG Export Plug-In . SVG Version: 6.00 Build 0)  -->
<svg version="1.1" id="Capa_1" xmlns="http://www.w3.org/2000/svg" xmlns:xlink="http://www.w3.org/1999/xlink" x="0px" y="0px"
	 viewBox="0 0 512 512" style="enable-background:new 0 0 512 512;" xml:space="preserve">
<path style="fill:#3E98EF;" d="M446,51H15C6.716,51,0,57.716,0,66v60c0,8.284,6.716,15,15,15h356v356c0,8.284,6.716,15,15,15h60
	c8.284,0,15-6.716,15-15V66C461,57.716,454.284,51,446,51z"/>
<path style="fill:#3079DA;" d="M446,51H256v90h115v356c0,8.284,6.716,15,15,15h60c8.284,0,15-6.716,15-15V66
	C461,57.716,454.284,51,446,51z"/>
<path style="fill:#4BB9FF;" d="M497,371H141V15c0-8.284-6.716-15-15-15H66c-8.284,0-15,6.716-15,15v431c0,8.284,6.716,15,15,15h431
	c8.284,0,15-6.716,15-15v-60C512,377.716,505.284,371,497,371z"/>
<path style="fill:#3E98EF;" d="M497,371H256v90h241c8.284,0,15-6.716,15-15v-60C512,377.716,505.284,371,497,371z"/>
<g>
</g>
<g>
</g>
<g>
</g>
<g>
</g>
<g>
</g>
<g>
</g>
<g>
</g>
<g>
</g>
<g>
</g>
<g>
</g>
<g>
</g>
<g>
</g>
<g>
</g>
<g>
</g>
<g>
</g>
</svg>
